# xmcd
#
# Track frame offsets:
#	150
#	11775
#	24035
#	36725
#	51936
#	63537
#	77674
#	87787
#	101398
#	113504
#	126075
#	138533
#	152407
#	163994
#	176714
#	188213
#	200572
#	212708
#	223744
#	233384
#	244652
#	256576
#	269994
#	281169
#
# Disc length: 3895 seconds
#
# Revision: 1
# Processed by: cddbd v1.5.2PL0 Copyright (c) Steve Scherf et al.
# Submitted via: audiograbber 1.83.01
#
DISCID=590f3518
DTITLE=Various Artist - The Soul Of Money vol. 3
DYEAR=2009
DGENRE=Soul
TTITLE0=Bettye Swann - Don't Take My Mind-1968
TTITLE1=Bobby Angelle - You Got Me Dizzy-1968
TTITLE2=Eric Williams - I'll Give My Love To You-1965
TTITLE3=Choice Of Colors - If She Wants To Go
TTITLE4=Eddie Horan - I'm Gonna Speak Out-1973
TTITLE5=Pat Livingston - Sugar Love-1973
TTITLE6=Delilah Moore - I Wish-1973
TTITLE7=Hank Jacobs and The TKO's - Speak To Me In Your Soulful Way-1968
TTITLE8=Filmore Street Soul Rebellions - Put Your Weight On It (part 2)-1967
TTITLE9=Question Marks - Doin' The Thing-1964
TTITLE10=Tommy and Eddie - I Don't Want Nobody-1966
TTITLE11=Bettye Swann - I Will Not Cry-1967
TTITLE12=Unknown Duo - Hard Times Are Coming
TTITLE13=M&M's and The Peanuts - Open Up Your Eyes-1964
TTITLE14=Bobby Angelle - Someone Is Gonna Hurt You-1967
TTITLE15=Larks - The Answer Came Too Late-1966
TTITLE16=Bobbi Row and The Englishmen - Why'd You Put Me On-1965
TTITLE17=M&M's and The Peanuts - There's Nothing I Wouldn't Do
TTITLE18=Mysteries - Sad And Blue
TTITLE19=TKO's and Hank Jacobs at the organ - The Charge-1966
TTITLE20=Larks - The Skate-1967
TTITLE21=Don Trotter - Give Back Your Lovin'-1966
TTITLE22=Bobby Angelle - Girl You're So Fine-1965
TTITLE23=Bettye Swann - The Heartache Is Gone-1966
EXTD=
EXTT0=
EXTT1=
EXTT2=
EXTT3=
EXTT4=
EXTT5=
EXTT6=
EXTT7=
EXTT8=
EXTT9=
EXTT10=
EXTT11=
EXTT12=
EXTT13=
EXTT14=
EXTT15=
EXTT16=
EXTT17=
EXTT18=
EXTT19=
EXTT20=
EXTT21=
EXTT22=
EXTT23=
PLAYORDER=
